<svg style="position: absolute; width: 0; height: 0;" width="0" height="0" version="1.1" xmlns="http://www.w3.org/2000/svg" xmlns:xlink="http://www.w3.org/1999/xlink"><defs><symbol id="return" viewBox="0 -212 1024 1024"><path d="M457 683 q4 9 7.5 17 q3.5 8 2.5 20 q-2 35 -24 51.5 q-22 16.5 -55 13.5 q-8 -1 -15.5 -5 q-7.5 -4 -13.5 -8 l-323 -323 q-12 -25 -12.5 -41.5 q-0.5 -16.5 12.5 -40.5 l353 -353 q6 -4 12 -7.5 q6 -3.5 14 -4.5 q28 -2 52 12.5 q24 14.5 28 44.5 q1 17 -1.5 25 q-2.5 8 -10.5 24 l-300 299 l274 276 Z"></path></symbol><symbol id="group" viewBox="0 -212 1024 1024"><path d="M596 449.71 q14 4 31 9.5 q17 5.5 32 7.5 l79 -28 q-34 -36 -42 -71.5 q-8 -35.5 1 -83.5 q14 -37 30.5 -52 q16.5 -15 55.5 -24 l42 1 q13 4 20.5 7 q7.5 3 18.5 12 q38 33 40.5 85 q2.5 52 -20.5 95 q-5 9 -11.5 16 q-6.5 7 -13.5 15 q27 7 52 17 q25 10 49 23 q34 30 40.5 58 q6.5 28 4.5 72 q-4 8 -5 8.5 q-1 0.5 -9 4.5 l-112 1 q8 35 10.5 68.5 q2.5 33.5 3.5 70.5 q-2 9 -3 10 q-1 1 -10 8 l-756 0 q-7 -6 -7.5 -7 q-0.5 -1 -3.5 -8 q0 -37 3 -71 q3 -34 11 -71 l-111 0 q-5 -2 -9 -5 q-4 -3 -6 -8 q-2 -44 3 -71 q5 -27 38 -58 q27 -15 51.5 -24 q24.5 -9 53.5 -18 l-19 -20 q-4 -8 -8.5 -15.5 q-4.5 -7.5 -7.5 -15.5 q-18 -46 -8 -96.5 q10 -50.5 56 -74.5 q14 -7 29 -8.5 q15 -1.5 30 -0.5 q15 2 22 3 q7 1 19 8 q48 30 53.5 86 q5.5 56 -19.5 103 q-6 10 -12 16 q-6 6 -14 15 q10 3 20 5.5 q10 2.5 20 5.5 q9 3 22.5 9.5 q13.5 6.5 23.5 7.5 q34 -10 38 -10.5 q4 -0.5 18 -7.5 q1 -21 -1.5 -20.5 q-2.5 0.5 -23.5 -16.5 q-12 -11 -22 -24.5 q-10 -13.5 -18 -28.5 q-30 -57 -34 -124.5 q-4 -67.5 21 -127.5 q7 -18 15 -28.5 q8 -10.5 21 -27.5 q14 -12 23 -19 q9 -7 27 -15 q18 -9 34 -12 q16 -3 38 -4 q50 -4 94.5 14.5 q44.5 18.5 73.5 61.5 q25 41 33 88.5 q8 47.5 0 94.5 q-5 34 -16 64.5 q-11 30.5 -30 58.5 q-5 8 -13 17 q-8 9 -14 14 q-5 4 -11.5 7 q-6.5 3 -10.5 8 q-2 4 -1 10 q1 6 1 11 ZM394 363.71 q5 5 9.5 10.5 q4.5 5.5 9.5 9.5 q12 10 18.5 12 q6.5 2 16.5 14 l1 58 q-3 8 -3.5 9 q-0.5 1 -7.5 7 q-24 6 -48 12.5 q-24 6.5 -48 13.5 q-34 11 -66 24 q-20 8 -38 18 q-58 33 -71.5 78.5 q-13.5 45.5 -14.5 110.5 l701 0 q0 -30 -1.5 -52.5 q-1.5 -22.5 -9.5 -50.5 q-21 -59 -76.5 -87 q-55.5 -28 -111.5 -43 q-29 -7 -54 -10.5 q-25 -3.5 -42 -23.5 l0 -65 q52 -38 66 -63.5 q14 -25.5 20 -51.5 q14 -53 10 -109 q-4 -56 -40 -100 q-39 -41 -100 -45.5 q-61 -4.5 -106 29.5 q-33 28 -47 70 q-14 42 -10 84 q2 44 11.5 74 q9.5 30 31.5 67 ZM141 315.71 l0 19 q2 20 6 33.5 q4 13.5 15 30.5 q5 7 11.5 9.5 q6.5 2.5 15.5 13.5 l1 34 q-2 5 -4.5 8.5 q-2.5 3.5 -7.5 6.5 q-33 7 -75 21 q-42 14 -57 47 q-4 11 -5 21.5 q-1 10.5 -2 21.5 l107 0 q29 -38 64.5 -58 q35.5 -20 78.5 -37 l-51 -15 q-8 -6 -9 -7 q-1 -1 -3 -7 l1 -38 q7 -8 13.5 -11.5 q6.5 -3.5 12.5 -10.5 q11 -15 13.5 -23.5 q2.5 -8.5 7.5 -27.5 l1 -35 q-3 -13 -5.5 -23 q-2.5 -10 -10.5 -20 q-20 -22 -50 -22.5 q-30 -0.5 -50 19.5 q-10 10 -13.5 23 q-3.5 13 -4.5 27 ZM768 470.71 l-51 16 q42 16 68 30 q26 14 59 45 l15 20 l107 0 q-1 -15 -3 -28 q-2 -13 -9 -27 q-17 -23 -58 -36 q-41 -13 -67 -19 l-12 -11 l-1 -38 q4 -7 8.5 -10 q4.5 -3 11.5 -8 q7 -5 12.5 -13.5 q5.5 -8.5 8.5 -15.5 q5 -11 6.5 -21 q1.5 -10 1.5 -23 q3 -43 -19 -66.5 q-22 -23.5 -65 -17.5 q-46 11 -49 61.5 q-3 50.5 17 84.5 q6 9 14.5 13 q8.5 4 14.5 12 q8 13 5 28 q-3 15 -15 24 Z"></path></symbol><symbol id="bag" viewBox="0 -212 1024 1024"><path d="M335 2 l295 0 l5 11 l0 108 l317 0 q16 7 22.5 14 q6.5 7 13.5 22 l0 227 l-987 0 l0 -227 q7 -16 13 -22 q6 -6 23 -13 l287 0 l1 -109 q3 -6 3.5 -6.5 q0.5 -0.5 6.5 -4.5 ZM1 455 l393 0 l0 94 l201 0 l0 -94 l393 0 l0 297 q-7 14 -13.5 21 q-6.5 7 -20.5 13 l-923 0 q-11 -6 -18 -14 q-7 -8 -12 -21 l0 -296 ZM430 455 l130 0 l0 62 l-130 0 l0 -62 ZM589 38 l-217 0 l0 83 l217 0 l0 -83 Z"></path></symbol><symbol id="home" viewBox="0 -212 1024 1024"><path d="M375 1 l2 0 q91 90 181 179.5 q90 89.5 180 180.5 q18 23 3.5 46.5 q-14.5 23.5 -43.5 18.5 q-4 -1 -7.5 -3.5 q-3.5 -2.5 -6.5 -4.5 l-307 -306 l-3 0 l-307 307 q-4 2 -8 4 q-4 2 -8 3 q-22 3 -35.5 -12.5 q-13.5 -15.5 -9.5 -37.5 q1 -3 3 -6.5 q2 -3.5 4 -6.5 l130 -131 l0 -142 q12 -26 30.5 -28 q18.5 -2 31.5 25 l0 80 l4 0 l166 -166 ZM375 172 l300 296 l0 309 q-2 4 -2.5 4.5 q-0.5 0.5 -4.5 3.5 l-97 0 l0 -273 l-154 0 l0 273 l-333 0 l-6 -7 l-1 -309 l298 -297 ZM320 512 l-138 0 l0 127 l139 0 l-1 -127 Z"></path></symbol><symbol id="eye" viewBox="0 -212 1024 1024"><path d="M522.5 780.5 q-6.5 -0.5 -28.5 -3.5 q-22 -3 -50.5 -9 q-28.5 -6 -58 -15.5 q-29.5 -9.5 -50 -18 q-20.5 -8.5 -35 -16 q-14.5 -7.5 -42.5 -24 q-28 -16.5 -55 -37.5 q-27 -21 -55 -47.5 q-28 -26.5 -44.5 -45.5 q-16.5 -19 -31.5 -40.5 q-15 -21.5 -27 -41 q-12 -19.5 -27 -51 q-15 -31.5 -16 -34 q-1 -2.5 -1 -6.5 q0 -4 13 -32 q13 -28 24 -47.5 q11 -19.5 25 -40.5 q14 -21 27 -37 q13 -16 40.5 -44.5 q27.5 -28.5 40 -39.5 q12.5 -11 40 -31.5 q27.5 -20.5 52 -35 q24.5 -14.5 51 -26.5 q26.5 -12 58.5 -23.5 q32 -11.5 60.5 -18 q28.5 -6.5 56.5 -10.5 q28 -4 79 -4 q51 0 75.5 3 q24.5 3 59 10 q34.5 7 65 17 q30.5 10 63.5 25 q33 15 59.5 31.5 q26.5 16.5 42.5 27.5 q16 11 31.5 24 q15.5 13 40 37 q24.5 24 41.5 44 q17 20 33.5 44.5 q16.5 24.5 30.5 49 q14 24.5 25.5 49 q11.5 24.5 11.5 28.5 q0 4 -4.5 14.5 q-4.5 10.5 -21 42 q-16.5 31.5 -32.5 56 q-16 24.5 -34 47 q-18 22.5 -41 46 q-23 23.5 -49 45 q-26 21.5 -42.5 33 q-16.5 11.5 -33 21.5 q-16.5 10 -49 25.5 q-32.5 15.5 -67 27.5 q-34.5 12 -52 16.5 q-17.5 4.5 -36 7.5 q-18.5 3 -36.5 5.5 q-18 2.5 -69 2.5 q-51 0 -57.5 -0.5 ZM574 547 q-32 0 -61 -12 q-29 -12 -50 -33.5 q-21 -21.5 -33.5 -50 q-12.5 -28.5 -12.5 -60.5 q0 -32 12.5 -61 q12.5 -29 33.5 -50 q21 -21 50 -33 q29 -12 61 -12 q32 0 60.5 12 q28.5 12 50 33 q21.5 21 33.5 50 q12 29 12 61 q0 32 -12 60.5 q-12 28.5 -33.5 50 q-21.5 21.5 -50 33.5 q-28.5 12 -60.5 12 ZM574 651 q54 0 101.5 -20 q47.5 -20 83.5 -56 q36 -36 56.5 -83 q20.5 -47 20.5 -100.5 q0 -53.5 -20.5 -101 q-20.5 -47.5 -56.5 -83 q-36 -35.5 -83.5 -55.5 q-47.5 -20 -101.5 -20 q-54 0 -102 20 q-48 20 -83.5 55.5 q-35.5 35.5 -56 83 q-20.5 47.5 -20.5 101 q0 53.5 20.5 100.5 q20.5 47 56 83 q35.5 36 83.5 56 q48 20 102 20 Z"></path></symbol><symbol id="edit" viewBox="0 -212 1024 1024"><path d="M769 118.56 q10 15 11.5 26 q1.5 11 -7.5 29 l-85 84 l-161 -162 l78 -79 q14 -10 29.5 -13 q15.5 -3 30.5 10 q52 53 104 105 ZM480 141.56 l161 162 l-477 480 l-163 0 l0 -163 l479 -479 Z"></path></symbol></defs></svg>